# xmcd
#
# Track frame offsets:
#	150
#	14203
#	32018
#	43333
#	61230
#	75153
#	100470
#	117450
#	134293
#	152840
#	167228
#	182095
#
# Disc length: 2620 seconds
# Revision: 2
# Processed by: cddbd v1.5.2PL0 Copyright (c) Steve Scherf et al.
# Submitted via: dBpowerAMP V12.0
#
DISCID=a20a3a0c
DTITLE=Emmylou Harris - Elite Hotel
DYEAR=1975
DGENRE=Country
TTITLE0=Amarillo
TTITLE1=Together Again
TTITLE2=Feelin' Single - Seein' Double
TTITLE3=Sin City
TTITLE4=One of These Days
TTITLE5=Till I Gain Control Again
TTITLE6=Here, There and Everywhere
TTITLE7=Ooh Las Vegas
TTITLE8=Sweet Dreams
TTITLE9=Jambalaya
TTITLE10=Satan's Jewel Crown
TTITLE11=Wheels
EXTD=
EXTT0=
EXTT1=
EXTT2=
EXTT3=
EXTT4=
EXTT5=
EXTT6=
EXTT7=
EXTT8=
EXTT9=
EXTT10=
EXTT11=
PLAYORDER=
